<?xml version="1.0" encoding="utf-8"?>
<!-- Generator: Adobe Illustrator 24.0.1, SVG Export Plug-In . SVG Version: 6.00 Build 0)  -->
<svg version="1.1" id="Layer_1" xmlns="http://www.w3.org/2000/svg" xmlns:xlink="http://www.w3.org/1999/xlink" x="0px" y="0px"
	 viewBox="0 0 1190.6 841.9" style="enable-background:new 0 0 1190.6 841.9;" xml:space="preserve">
<style type="text/css">
	.st0{fill:#333333;}
</style>
<g>
	<g>
		<path class="st0" d="M663.9,230.6h12.2l18.7,52.9l-6.6,12.9L663.9,230.6z M717.7,230.6l-25.9,75.1c-0.9,2.8-2.2,5-3.7,6.6
			c-1.5,1.6-3.4,2.8-5.6,3.5s-5,1.1-8.2,1.1h-2.4v-11.5h2.4c2.2,0,4-0.4,5.3-1.3c1.3-0.9,2.5-2.4,3.4-4.6l22.5-68.7H717.7z"/>
		<path class="st0" d="M738.1,289.1c-3.8-2.1-6.6-5.1-8.6-9.1c-2-4-3-8.7-3-14.3v-9.9c0-5.5,1-10.2,3-14.2s4.8-6.9,8.6-9
			s8.3-3.1,13.5-3.1s9.8,1,13.5,3.1s6.6,5,8.6,9s3,8.6,3,14.2v10.1c0,5.5-1,10.3-3,14.2s-4.8,6.9-8.6,9c-3.8,2.1-8.3,3.1-13.5,3.1
			S741.8,291.2,738.1,289.1z M761.3,277c2.3-2.6,3.4-6.3,3.4-11v-10.1c0-4.7-1.1-8.4-3.4-11s-5.5-3.9-9.7-3.9s-7.4,1.3-9.7,3.9
			s-3.4,6.2-3.4,11v10.1c0,4.7,1.1,8.4,3.4,11c2.3,2.6,5.5,3.9,9.7,3.9S759,279.6,761.3,277z"/>
		<path class="st0" d="M805.6,267.5c0,4.3,1.1,7.5,3.3,9.9c2.2,2.3,5.2,3.5,9.2,3.5c3.9,0,6.9-1,9.1-3.1c2.1-2.1,3.2-5,3.2-8.8
			l0.8,12.7c-1.3,3-3.3,5.5-6.1,7.6c-2.8,2-6.3,3-10.4,3c-6.7,0-11.9-2.2-15.6-6.5c-3.7-4.3-5.5-10.4-5.5-18.3v-37h12V267.5z
			 M830.3,230.6h11.9v60.8h-11.9V230.6z"/>
		<path class="st0" d="M860.4,230.6h12v60.8h-12V230.6z M889.9,242c-1.6-0.7-3.5-1-5.6-1c-3.8,0-6.7,1-8.8,3.1
			c-2.1,2.1-3.1,5-3.1,8.7l-1.2-11.7c1.9-3.6,4.3-6.5,7.3-8.5c3-2,6.3-3,9.8-3c2.8,0,5.3,0.4,7.5,1.2c2.2,0.8,4.2,2,5.9,3.5
			l-7.8,10.5C892.8,243.7,891.5,242.7,889.9,242z"/>
		<path class="st0" d="M670.3,350.2h12v85.2h-12V350.2z M687.7,433.5c-2.8-1.8-4.9-4.4-6.2-7.7l0.8-12.7c0,2.6,0.5,4.8,1.4,6.7
			c0.9,1.8,2.3,3.2,4.1,4.2c1.8,1,3.9,1.5,6.5,1.5c3.9,0,7-1.2,9.2-3.6c2.2-2.4,3.3-5.8,3.3-10.2v-13.2c0-4.5-1.1-7.9-3.3-10.4
			s-5.2-3.7-9.2-3.7c-2.5,0-4.7,0.5-6.5,1.4s-3.1,2.3-4.1,4.1s-1.4,4-1.4,6.5l-1.2-11.7c1.8-3.6,4.2-6.3,7.2-8.2s6.3-2.9,9.9-2.9
			c4.3,0,8,1,11,2.9s5.4,4.8,7,8.5c1.6,3.7,2.4,8.2,2.4,13.4v13.2c0,5.2-0.8,9.6-2.5,13.2c-1.6,3.7-4,6.5-7.2,8.4s-7,2.9-11.4,2.9
			C693.8,436.3,690.5,435.3,687.7,433.5z"/>
		<path class="st0" d="M735.6,374.6h12v60.8h-12V374.6z M765.1,386c-1.6-0.7-3.5-1-5.6-1c-3.8,0-6.7,1-8.8,3.1
			c-2.1,2.1-3.1,5-3.1,8.7l-1.2-11.7c1.9-3.6,4.3-6.5,7.3-8.5c3-2,6.3-3,9.8-3c2.8,0,5.3,0.4,7.5,1.2c2.2,0.8,4.2,2,5.9,3.5
			l-7.8,10.5C768,387.7,766.7,386.7,765.1,386z"/>
		<path class="st0" d="M789.4,431.6c-3.7-3.1-5.6-7.8-5.6-14.2c0-6,1.7-10.5,5.1-13.5c3.4-3,8.5-4.5,15.4-4.5h17.3l0.8,9.6h-18
			c-3.1,0-5.5,0.7-7,2.1c-1.5,1.4-2.3,3.5-2.3,6.4c0,3.1,1,5.4,3.1,6.9c2.1,1.5,5.2,2.2,9.3,2.2c4.6,0,8-0.5,10.2-1.5
			c2.2-1,3.4-2.5,3.4-4.6l1.2,8.6c-1.1,1.6-2.4,3-3.9,4s-3.3,1.8-5.4,2.4s-4.3,0.8-6.9,0.8C798.8,436.3,793.2,434.7,789.4,431.6z
			 M821.1,396.8c0-4-1.1-7.1-3.2-9.3c-2.1-2.2-5.1-3.3-9.1-3.3c-2.4,0-4.8,0.4-7.1,1.1c-2.3,0.7-4.4,1.8-6.2,3.1l-8.7-6
			c2.3-2.8,5.3-4.9,9.1-6.5c3.8-1.5,8-2.3,12.6-2.3c5,0,9.4,0.9,12.9,2.7c3.6,1.8,6.3,4.4,8.2,7.7c1.9,3.4,2.8,7.5,2.8,12.2v39.1
			h-11.4V396.8z"/>
		<path class="st0" d="M850.7,374.6h12v60.8h-12V374.6z M887.6,398.5c0-4.3-1.1-7.6-3.3-10s-5.4-3.5-9.4-3.5c-3.9,0-6.9,1-9.1,3.1
			c-2.1,2.1-3.2,5-3.2,8.7l-1.2-11.7c1.9-3.7,4.3-6.5,7.4-8.5s6.4-3,10-3c6.6,0,11.7,2.2,15.3,6.5c3.6,4.3,5.4,10.4,5.4,18.3v36.9
			h-12V398.5z"/>
		<path class="st0" d="M925.6,433.5c-3.1-1.9-5.5-4.8-7.2-8.5c-1.6-3.7-2.5-8.2-2.5-13.4v-13.4c0-5.2,0.8-9.7,2.4-13.4
			c1.6-3.7,3.9-6.5,7-8.5s6.7-2.9,11-2.9c3.6,0,6.9,0.9,9.9,2.8s5.4,4.5,7.2,7.9l-1.2,12.4c0-2.6-0.5-4.8-1.4-6.6
			c-0.9-1.8-2.3-3.2-4.1-4.2c-1.8-1-3.9-1.4-6.5-1.4c-3.9,0-7,1.2-9.2,3.7s-3.3,5.9-3.3,10.4v13.2c0,4.4,1.1,7.8,3.3,10.2
			c2.2,2.4,5.2,3.6,9.2,3.6c2.5,0,4.7-0.5,6.5-1.5s3.1-2.4,4.1-4.3s1.4-4.1,1.4-6.7l0.8,12.8c-1.2,3-3.2,5.5-5.9,7.6s-6.1,3-10.2,3
			C932.5,436.4,928.7,435.5,925.6,433.5z M952.3,350.2h12v85.2h-12V350.2z"/>
		<path class="st0" d="M670.3,494.2h12v85.2h-12V494.2z M707.2,542.5c0-4.3-1.1-7.6-3.3-10s-5.4-3.5-9.4-3.5c-3.9,0-6.9,1-9.1,3
			c-2.1,2-3.2,4.9-3.2,8.6L681,529c1.9-3.6,4.3-6.4,7.4-8.3c3-2,6.4-3,10-3c6.6,0,11.7,2.2,15.3,6.5c3.6,4.3,5.4,10.4,5.4,18.3v36.9
			h-12V542.5z"/>
		<path class="st0" d="M747.8,577.1c-4-2.1-7-5.2-9.1-9.3c-2.1-4.1-3.1-9-3.1-14.8v-6.9c0-6,1-11.2,3-15.4c2-4.3,4.9-7.5,8.8-9.7
			s8.4-3.3,13.8-3.3c5.1,0,9.4,1.3,13,3.8c3.6,2.5,6.3,6.2,8.2,11s2.8,10.6,2.8,17.3v4h-41v-9.6h29.6c-0.4-5-1.6-8.8-3.8-11.6
			s-5.2-4.1-8.9-4.1c-4.5,0-8,1.5-10.5,4.5c-2.5,3-3.7,7.2-3.7,12.6v7.7c0,5,1.3,8.9,4,11.6s6.4,4,11.3,4c2.4,0,4.8-0.5,7.2-1.5
			c2.4-1,4.5-2.3,6.4-4.1l7.9,7.9c-3,2.9-6.4,5.1-10.1,6.7s-7.5,2.4-11.3,2.4C756.6,580.3,751.8,579.2,747.8,577.1z"/>
		<path class="st0" d="M801.7,518.6h12v60.8h-12V518.6z M831.2,530c-1.6-0.7-3.5-1-5.6-1c-3.8,0-6.7,1-8.8,3.1
			c-2.1,2.1-3.1,5-3.1,8.7l-1.2-11.7c1.9-3.6,4.3-6.5,7.3-8.5c3-2,6.3-3,9.8-3c2.8,0,5.3,0.4,7.5,1.2c2.2,0.8,4.2,2,5.9,3.5
			l-7.8,10.5C834.1,531.7,832.8,530.7,831.2,530z"/>
		<path class="st0" d="M863.4,577.1c-4-2.1-7-5.2-9.1-9.3c-2.1-4.1-3.1-9-3.1-14.8v-6.9c0-6,1-11.2,3-15.4c2-4.3,4.9-7.5,8.8-9.7
			s8.4-3.3,13.8-3.3c5.1,0,9.4,1.3,13,3.8c3.6,2.5,6.3,6.2,8.2,11s2.8,10.6,2.8,17.3v4h-41v-9.6h29.6c-0.4-5-1.6-8.8-3.8-11.6
			s-5.2-4.1-8.9-4.1c-4.5,0-8,1.5-10.5,4.5c-2.5,3-3.7,7.2-3.7,12.6v7.7c0,5,1.3,8.9,4,11.6s6.4,4,11.3,4c2.4,0,4.8-0.5,7.2-1.5
			c2.4-1,4.5-2.3,6.4-4.1l7.9,7.9c-3,2.9-6.4,5.1-10.1,6.7s-7.5,2.4-11.3,2.4C872.2,580.3,867.4,579.2,863.4,577.1z"/>
	</g>
</g>
<g>
	<path class="st0" d="M349.3,583.3c-61.4-33.4-103.1-98.5-103.1-173.4S287.9,270,349.3,236.5v-21.7c-95,14.2-167.9,96.1-167.9,195.1
		S254.3,590.8,349.3,605V583.3z"/>
	<path class="st0" d="M417.8,214.8v21.7C479.3,269.9,521,335,521,409.9s-41.7,140-103.2,173.4V605c95.1-14.2,168-96.1,168-195.1
		S512.9,228.9,417.8,214.8z"/>
</g>
</svg>
