<?xml version="1.0" encoding="utf-8"?>
<!-- Generator: Adobe Illustrator 24.0.1, SVG Export Plug-In . SVG Version: 6.00 Build 0)  -->
<svg version="1.1" id="Layer_1" xmlns="http://www.w3.org/2000/svg" xmlns:xlink="http://www.w3.org/1999/xlink" x="0px" y="0px"
	 viewBox="0 0 512 512" style="enable-background:new 0 0 512 512;" xml:space="preserve">
<style type="text/css">
	.st0{fill:#FFFFFF;}
</style>
<path class="st0" d="M0,456c0,13.2,10.7,23.9,23.9,24h464.2c13.2,0,23.9-10.8,23.9-24c0-13.3-10.7-24-24-24h-20.4
	c28-41,44.4-90.6,44.4-144c0-141.4-114.6-256-256-256S0,146.6,0,288c0,53.4,16.4,103,44.4,144H24C10.7,432,0,442.8,0,456L0,456z
	 M232,409.6c-36.1-7.1-66.2-30.2-83.7-61.4l42.7-13.9c10,13.9,24.3,24.3,41,29.6L232,409.6L232,409.6z M176.1,288.7l-42.6,13.8
	c-0.6-4.8-1.5-9.6-1.5-14.6c0-32.5,12.8-61.9,33.3-84l26.6,36.5C182,253.9,176,270.2,176,288C176,288.3,176.1,288.5,176.1,288.7
	L176.1,288.7z M256,320c-17.7,0-32-14.3-32-32s14.3-32,32-32s32,14.3,32,32S273.7,320,256,320z M204.1,175.8
	c24.1-11.2,61.6-19.6,103.8,0l-26.7,36.7c-22.1-7.4-37.6-4.3-50.4,0L204.1,175.8z M280,409.6v-45.6c16.7-5.3,31-15.6,41-29.6
	l42.7,13.9C346.2,379.4,316.1,402.5,280,409.6z M320.1,240.6l26.5-36.6c20.5,22.1,33.3,51.5,33.3,84c0,5-0.9,9.7-1.5,14.6
	l-42.6-13.8c0-0.3,0.1-0.5,0.1-0.7C336,270.2,330,253.9,320.1,240.6z M256,80c114.7,0,208,93.3,208,208c0,55.9-22.3,106.6-58.3,144
	h-56.1c47.1-30.7,78.4-83.6,78.4-144c0-95-77-172-172-172S84,193,84,288c0,60.4,31.3,113.3,78.4,144h-56.1
	C70.3,394.6,48,343.9,48,288C48,173.3,141.3,80,256,80z"/>
</svg>
